<svg width="42" height="57" viewBox="0 0 42 57" fill="none" xmlns="http://www.w3.org/2000/svg">
<path d="M12.4465 60.4525C12.1985 60.3995 12.0277 60.3456 11.9786 60.3049C11.8655 60.2111 11.5463 60.0591 11.4623 60.0591C11.2577 60.0591 10.9995 59.8385 10.9288 59.6033C10.9023 59.515 10.8927 58.9028 10.9003 57.7799L10.9117 56.0895L11.0026 55.8996C11.0875 55.7222 11.1742 55.3768 11.2695 54.8359C11.3218 54.5386 11.4047 54.2321 11.4903 54.0192C11.528 53.9252 11.5711 53.7214 11.586 53.5664C11.6009 53.4114 11.6297 53.2319 11.65 53.1675C11.6703 53.1032 11.6989 52.8454 11.7137 52.5947C11.7376 52.1879 11.7534 52.1123 11.8608 51.8921C11.9519 51.7052 11.9896 51.5625 12.0166 51.3033C12.0361 51.1152 12.0692 50.9015 12.0902 50.8285C12.1112 50.7556 12.1289 50.3282 12.1295 49.8789C12.1306 49.1592 12.1397 49.037 12.2055 48.853C12.3375 48.4845 12.3824 48.3077 12.4083 48.0552C12.4222 47.9194 12.4587 47.7143 12.4893 47.5994C12.5234 47.4717 12.5522 47.1392 12.5635 46.7447C12.5833 46.0529 12.6197 45.8055 12.7361 45.5705C12.7899 45.4619 12.8178 45.2967 12.8398 44.9555C12.8563 44.6988 12.8819 44.469 12.8967 44.4448C12.9114 44.4206 12.9373 44.276 12.9542 44.1234C12.9755 43.9302 13.0264 43.7571 13.1218 43.5531L13.2588 43.2602L13.2457 42.7983C13.2331 42.3548 13.2278 42.3288 13.1136 42.1473C13.0482 42.0434 12.96 41.8686 12.9176 41.7589C12.8216 41.5103 12.6803 41.2896 12.4742 41.067C12.3041 40.883 12.1866 40.6599 12.0581 40.2768C12.0142 40.1458 11.9193 39.9537 11.8474 39.8498C11.7754 39.7459 11.7165 39.6454 11.7165 39.6264C11.7165 39.6075 11.6536 39.5359 11.5767 39.4674C11.4998 39.3989 11.4185 39.3074 11.3959 39.264C11.2031 38.8936 10.9732 38.52 10.8916 38.4445C10.8803 38.4341 10.8223 38.3265 10.7628 38.2054C10.6986 38.075 10.4977 37.8119 10.2696 37.5597C10.0579 37.3255 9.88416 37.1132 9.88352 37.0878C9.88286 37.0624 9.83121 36.9886 9.76874 36.9237C9.70628 36.8589 9.60522 36.7002 9.54417 36.571C9.48312 36.4419 9.39984 36.2935 9.35911 36.2413C9.31838 36.189 9.28467 36.1273 9.28421 36.104C9.28376 36.0807 9.23217 36.0038 9.16958 35.933C9.05505 35.8036 8.77911 35.2672 8.66374 34.9497C8.56855 34.6877 8.55866 34.5545 8.62477 34.4248C8.65758 34.3604 8.68443 34.2303 8.68443 34.1357C8.68443 33.9087 8.59741 33.8515 8.19043 33.8111C7.9483 33.7871 7.81946 33.75 7.60726 33.6433C7.45745 33.5679 7.31015 33.5062 7.27993 33.5062C7.16793 33.5062 6.90388 33.1788 6.72843 32.8224C6.63072 32.624 6.55077 32.4434 6.55077 32.4212C6.55077 32.399 6.50139 32.3328 6.44103 32.2741C6.38067 32.2154 6.27925 32.0626 6.21565 31.9346C6.07352 31.6485 5.89479 31.3913 5.8037 31.3418C5.72199 31.2974 5.54932 30.991 5.42854 30.6762C5.38046 30.5508 5.3132 30.4141 5.27907 30.3723C5.16344 30.2307 5.09781 30.1011 5.03764 29.8955C5.00464 29.7828 4.92637 29.6258 4.8637 29.5466C4.80103 29.4675 4.71421 29.2878 4.67075 29.1473C4.53898 28.7213 4.44787 28.6026 4.16095 28.4832C3.65459 28.2725 3.44163 27.9825 3.38646 27.4283C3.34396 27.0015 3.15115 26.7698 2.77004 26.6876C2.55974 26.6422 2.3849 26.5354 2.21551 26.3489C2.04516 26.1614 1.68508 25.6224 1.68355 25.5526C1.68302 25.5291 1.60235 25.4121 1.50427 25.2924C1.40619 25.1728 1.26765 24.9598 1.1964 24.8191C1.12515 24.6784 1.029 24.5315 0.982739 24.4927C0.936476 24.4538 0.825666 24.3078 0.736489 24.1683C0.647312 24.0287 0.54619 23.8911 0.511778 23.8624C0.477363 23.8337 0.449204 23.7954 0.449204 23.7773C0.449204 23.7591 0.390929 23.6668 0.319704 23.5721C0.0337788 23.1919 0.0390045 22.7394 0.332994 22.4212C0.396911 22.352 0.449206 22.2778 0.449206 22.2564C0.449206 22.2349 0.525008 22.1294 0.617655 22.022C0.710302 21.9145 0.786104 21.8151 0.786104 21.8011C0.786104 21.787 0.846734 21.6671 0.920841 21.5345C0.994947 21.4019 1.08699 21.1909 1.12538 21.0655C1.22474 20.7411 1.36699 20.5335 1.80498 20.0741C2.01665 19.852 2.21296 19.6458 2.24119 19.6158C2.27947 19.5751 2.28535 19.5108 2.26428 19.3637C2.19598 18.8867 2.21396 18.7649 2.40898 18.3827C2.50894 18.1868 2.66475 17.949 2.75524 17.8543C2.84573 17.7595 2.91976 17.6647 2.91976 17.6436C2.91976 17.6224 2.98714 17.5383 3.0695 17.4567C3.15185 17.3751 3.21923 17.2915 3.21923 17.271C3.21923 17.2505 3.24996 17.1984 3.28753 17.1553C3.32509 17.1121 3.403 16.9674 3.46064 16.8336C3.51829 16.6999 3.63747 16.4947 3.72548 16.3778C3.88204 16.1698 4.13578 15.9183 4.18909 15.9183C4.25214 15.9183 4.41246 15.6948 4.47527 15.5194C4.57442 15.2425 4.75099 14.9803 5.01255 14.7217C5.2972 14.4402 5.37637 14.315 5.46227 14.0107C5.54898 13.7034 5.66182 13.492 5.78167 13.4123C5.92629 13.316 6.11513 13.0703 6.1913 12.8793C6.29817 12.6113 6.32173 12.5648 6.4187 12.4301C6.46872 12.3606 6.53593 12.2153 6.56806 12.1072C6.63128 11.8945 6.78725 11.6454 7.00932 11.4026C7.08653 11.3182 7.14969 11.2317 7.14969 11.2103C7.14969 11.1711 7.4005 10.9097 7.65018 10.6888C7.7249 10.6227 7.78604 10.5447 7.78604 10.5155C7.78604 10.4547 7.9543 10.0897 8.02176 10.0042C8.04652 9.97276 8.13838 9.86573 8.22588 9.76632C8.31338 9.6669 8.38497 9.56846 8.38497 9.54756C8.38497 9.47629 9.01153 8.81472 9.07902 8.81472C9.10158 8.81472 9.18626 8.754 9.26721 8.67979C9.50174 8.46477 9.78154 8.34518 9.99113 8.37037C10.0875 8.38196 10.2162 8.41658 10.277 8.44733C10.4185 8.51883 10.5342 8.55207 11.1738 8.70501C11.558 8.79689 11.749 8.8632 11.8896 8.95354C11.995 9.0213 12.1298 9.08818 12.189 9.10217C12.3188 9.1328 12.6005 9.29152 12.6416 9.35719C12.6885 9.4321 13.0283 9.56726 13.2294 9.591C13.3306 9.60294 13.5016 9.65966 13.6095 9.71705C13.819 9.82857 14.1234 9.98241 14.3369 10.0847C14.4089 10.1192 14.5464 10.2023 14.6423 10.2693C15.1399 10.6168 15.2441 10.6664 15.5347 10.6939C15.6891 10.7085 15.9105 10.7446 16.0267 10.7742C16.1429 10.8038 16.366 10.828 16.5224 10.828C16.7874 10.828 16.818 10.8367 16.9712 10.9554C17.0617 11.0255 17.1743 11.1193 17.2215 11.1639C17.2686 11.2085 17.3402 11.2557 17.3805 11.2686C17.4208 11.2816 17.5568 11.3586 17.6827 11.4396C17.8087 11.5207 17.9475 11.5872 17.9914 11.5874C18.0831 11.5878 18.2333 11.6481 18.6791 11.8633C18.8541 11.9478 19.1456 12.0657 19.3269 12.1254C19.5082 12.185 19.7071 12.2604 19.769 12.2928C19.8308 12.3253 20.0194 12.3842 20.188 12.4237C20.7144 12.547 20.7512 12.5601 20.9701 12.7025C21.0875 12.7789 21.1969 12.8415 21.2134 12.8418C21.2298 12.842 21.3275 12.9102 21.4304 12.9933C21.5334 13.0764 21.6437 13.1446 21.6756 13.1449C21.7075 13.1451 21.7496 13.1599 21.7692 13.1779C21.7887 13.1958 21.9274 13.2303 22.0774 13.2544C22.2893 13.2886 22.3893 13.3278 22.5266 13.4309C22.6237 13.5038 22.8165 13.64 22.955 13.7335C23.0935 13.827 23.2282 13.938 23.2541 13.9802C23.2801 14.0224 23.316 14.057 23.334 14.057C23.3832 14.057 23.8207 14.3975 23.8636 14.4692C23.919 14.5619 23.9097 15.4848 23.851 15.7165C23.8235 15.8249 23.7519 15.9923 23.6917 16.0885C23.5931 16.2464 23.579 16.3106 23.547 16.7462C23.5152 17.1803 23.4607 17.4438 23.3178 17.8557C23.2692 17.9957 23.1021 18.3419 23.0519 18.4065C22.8706 18.64 22.8177 18.6914 22.7591 18.6914C22.7214 18.6914 22.685 18.7051 22.6782 18.7218C22.647 18.7978 22.2668 18.967 22.0189 19.0151C21.7572 19.0659 21.4491 19.2027 21.4491 19.2682C21.4491 19.2852 21.427 19.2992 21.4 19.2992C21.373 19.2992 21.2812 19.3334 21.1959 19.3751C21.0573 19.4431 20.9644 19.4511 20.3144 19.4511C19.4446 19.4511 19.2652 19.481 18.9224 19.6828C18.6597 19.8375 18.4098 19.9433 18.3048 19.9444C18.2739 19.9447 18.1817 20.0055 18.0999 20.0793C18.0181 20.1532 17.9086 20.2259 17.8566 20.2407C17.8045 20.2556 17.4221 20.2678 17.0066 20.2678C16.1438 20.2678 16.1472 20.2689 15.9215 19.9233C15.652 19.5105 15.5661 19.4149 15.3398 19.2759C15.2102 19.1963 15.0716 19.1006 15.0317 19.0632C14.9918 19.0258 14.9434 18.9953 14.9243 18.9953C14.8535 18.9953 14.331 18.4146 14.1411 18.1248C14.0943 18.0535 13.9719 17.9396 13.8689 17.8717C13.6515 17.7282 13.3498 17.4255 13.279 17.2796C13.2295 17.1778 12.8074 16.83 12.7333 16.83C12.7114 16.83 12.68 16.8068 12.6636 16.7786C12.6471 16.7503 12.5938 16.7059 12.545 16.6799C12.4716 16.6407 12.4466 16.6426 12.399 16.6909C12.308 16.7833 12.3998 17.391 12.5462 17.6657C12.6446 17.8502 12.6601 17.9237 12.6789 18.2942C12.6906 18.5249 12.688 18.8285 12.6732 18.9687C12.6497 19.1914 12.6264 19.249 12.489 19.4229C12.4024 19.5324 12.3001 19.6947 12.2617 19.7835C12.2232 19.8723 12.1813 19.9449 12.1685 19.9449C12.1558 19.9449 12.112 20.009 12.0714 20.0874C12.0307 20.1657 11.8668 20.3974 11.7072 20.6021C11.5476 20.8069 11.417 21.0035 11.4169 21.039C11.4168 21.0745 11.3452 21.182 11.2578 21.2779C11.1302 21.418 11.0541 21.4648 10.8718 21.5154C10.7469 21.55 10.5612 21.5783 10.459 21.5783C10.2715 21.5783 10.1058 21.6556 10.1082 21.7419C10.1099 21.8065 10.2251 21.9381 10.3331 21.9988C10.5413 22.116 11.0063 22.2261 11.4483 22.263C11.7097 22.2848 11.9566 22.3259 12.0173 22.3578C12.0763 22.3887 12.1495 22.4141 12.1799 22.4141C12.2103 22.4141 12.2575 22.4365 12.2847 22.464C12.3119 22.4915 12.4184 22.5631 12.5213 22.623C12.6243 22.683 12.7823 22.7825 12.8724 22.8442C12.9626 22.9058 13.109 22.9785 13.1979 23.0056C13.3922 23.065 13.5022 23.1224 13.6017 23.2164C13.7128 23.3214 14.0128 23.4718 14.2343 23.5335C14.3422 23.5636 14.4725 23.6006 14.524 23.6157C14.5755 23.6309 14.7355 23.7066 14.8796 23.7841C15.1115 23.9087 15.1816 23.9273 15.4884 23.9458C15.7437 23.9612 15.8817 23.9898 16.0123 24.0546C16.2293 24.1622 16.8143 24.7492 16.9248 24.9701C16.9688 25.0581 17.0446 25.1785 17.0933 25.2375C17.1419 25.2966 17.1817 25.3589 17.1817 25.3759C17.1817 25.393 17.2786 25.5081 17.397 25.6318C17.6053 25.8493 17.8181 26.1906 17.8181 26.3071C17.8181 26.3383 17.8855 26.4624 17.9678 26.5827C18.0501 26.7031 18.1175 26.8231 18.1175 26.8494C18.1175 26.8757 18.2523 27.0497 18.417 27.2361C18.5817 27.4225 18.7165 27.5852 18.7165 27.5975C18.7165 27.6269 18.9089 27.9268 18.9691 27.9914C18.9949 28.019 19.016 28.0546 19.016 28.0705C19.016 28.0864 19.0752 28.1595 19.1476 28.233C19.2403 28.3271 19.2961 28.4327 19.3366 28.5907C19.4014 28.8434 19.5418 29.0171 19.7764 29.1349C19.9617 29.228 20.1556 29.5 20.2202 29.7578C20.2642 29.9333 20.317 30.0027 20.7096 30.4015C20.9516 30.6474 21.1497 30.8588 21.1497 30.8713C21.1497 30.8839 21.1998 30.952 21.261 31.0228C21.3222 31.0935 21.4002 31.2496 21.4343 31.3697C21.5045 31.617 21.569 31.7195 21.8608 32.0475C21.9826 32.1846 22.1336 32.4174 22.2303 32.6173C22.3202 32.8033 22.4592 33.0425 22.5391 33.1489C22.6191 33.2553 22.6845 33.367 22.6845 33.397C22.6845 33.4271 22.8161 33.5965 22.9769 33.7734C23.3043 34.1334 23.5588 34.4713 23.5987 34.5987C23.6133 34.6453 23.65 34.7086 23.6804 34.7394C23.7108 34.7703 23.7734 34.8629 23.8195 34.9454C23.8657 35.0278 24.0347 35.2356 24.195 35.4071C24.4924 35.725 24.5944 35.916 24.7944 36.5293C24.8393 36.6669 24.9318 36.8034 25.1162 37.0041C25.3232 37.2296 25.3913 37.3353 25.4565 37.5328C25.5014 37.6687 25.5597 37.8054 25.5862 37.8367C25.707 37.98 25.8288 38.2606 25.8285 38.3949C25.828 38.5811 25.6633 38.8722 25.4457 39.0713C25.1575 39.335 25.081 39.3942 25.0284 39.3942C24.942 39.3942 24.5392 39.5878 24.5074 39.6446C24.4909 39.674 24.4556 39.6981 24.4289 39.6981C24.4023 39.6981 24.3134 39.7708 24.2314 39.8596C24.0361 40.0711 23.8486 40.2305 23.7325 40.2837C23.6811 40.3073 23.5429 40.3903 23.4255 40.4682C23.3081 40.5461 23.195 40.6098 23.1741 40.6098C23.1533 40.6098 23.0809 40.6591 23.0132 40.7193C22.7457 40.9575 22.4071 41.1183 22.0434 41.1799C21.73 41.233 21.5816 41.2982 21.5235 41.4085C21.4758 41.4988 21.4385 41.4834 22.0186 41.6133C22.5475 41.7317 23.3781 41.7515 23.7452 41.6545C23.8638 41.6231 24.0701 41.5975 24.2037 41.5975C24.4343 41.5975 24.4546 41.605 24.6028 41.7453L24.7589 41.8931L24.7886 42.5715C24.8167 43.2133 24.8242 43.2622 24.9278 43.4778C25.0385 43.7083 25.1029 44.1097 25.1901 45.112C25.2127 45.3723 25.2452 45.5046 25.3253 45.6628C25.4296 45.8686 25.4311 45.8815 25.457 46.7827C25.4758 47.4365 25.5003 47.7567 25.5437 47.9146C25.5848 48.0644 25.6042 48.2893 25.6042 48.6174C25.6042 48.8828 25.6226 49.2879 25.645 49.5177C25.6674 49.7476 25.6884 50.098 25.6917 50.2965C25.6971 50.6146 25.7111 50.6844 25.8101 50.8853L25.9224 51.1132L25.9232 52.4617C25.9238 53.4287 25.937 53.8478 25.97 53.943C25.9953 54.0159 26.016 54.2174 26.016 54.3905C26.016 54.9363 26.1683 55.1291 26.3529 54.8169C26.3965 54.7432 26.4117 54.554 26.4212 53.9714C26.4343 53.1626 26.4123 53.0294 26.196 52.6082C26.1178 52.456 26.1117 52.3984 26.1169 51.8542C26.12 51.5302 26.1369 49.436 26.1544 47.2004L26.1862 43.1358L26.2717 42.978C26.3803 42.7773 26.5635 42.6548 26.9158 42.5472C27.2371 42.4491 27.5507 42.3176 27.5507 42.281C27.5507 42.2672 27.597 42.2319 27.6537 42.2025C27.7103 42.1732 27.8299 42.0891 27.9194 42.0157C28.2963 41.7067 28.4117 41.586 28.4117 41.5009C28.4117 41.3948 28.2395 41.2409 28.0496 41.1773C27.6945 41.0584 27.4771 40.8851 26.9536 40.3038C26.6377 39.9529 26.6261 39.9335 26.6012 39.715C26.5389 39.1676 26.3812 38.5819 26.1974 38.215C26.0976 38.0156 26.0159 37.8331 26.0159 37.8093C26.0159 37.7856 25.9554 37.6631 25.8815 37.5371C25.7786 37.3618 25.7423 37.2521 25.7268 37.0691C25.7046 36.808 25.6803 36.7443 25.5273 36.5451C25.4296 36.4177 25.3737 36.2319 25.3216 35.8613C25.3084 35.7673 25.2218 35.5365 25.1291 35.3485C24.9604 35.0058 24.8967 34.84 24.8202 34.544C24.7976 34.4567 24.7206 34.2969 24.6489 34.1888C24.5772 34.0807 24.5186 33.9686 24.5186 33.9397C24.5186 33.9107 24.4572 33.7714 24.3821 33.6301C24.3071 33.4888 24.2241 33.3304 24.1977 33.2782C24.1714 33.226 24.1248 33.0592 24.0943 32.9076C24.0397 32.6364 23.9072 32.3524 23.7888 32.2527C23.7557 32.2247 23.6589 32.0808 23.5739 31.9328C23.4569 31.7291 23.2528 31.4969 22.7337 30.977C22.3566 30.5993 22.0476 30.266 22.0471 30.2363C22.0452 30.1259 21.7823 29.8228 21.5043 29.6105C21.3465 29.49 21.1985 29.3471 21.1754 29.293C21.1247 29.1746 20.9621 28.9102 20.897 28.8405C20.8712 28.8129 20.8502 28.7674 20.8502 28.7395C20.8502 28.7115 20.7314 28.5632 20.5862 28.4098C20.441 28.2564 20.2551 28.0603 20.1732 27.974C20.0912 27.8877 19.9845 27.7339 19.9359 27.6321C19.8874 27.5304 19.7956 27.3873 19.7319 27.3142C19.6682 27.2411 19.6158 27.1585 19.6154 27.1307C19.6147 27.064 19.4054 26.801 19.0332 26.3988C18.7697 26.1141 18.725 26.0454 18.6849 25.8635C18.6525 25.7166 18.6502 25.6249 18.677 25.5532C18.7273 25.4191 18.8793 25.3604 19.0316 25.4162C19.095 25.4395 19.3098 25.4735 19.5088 25.4918C19.7077 25.5101 19.9713 25.5516 20.0944 25.5839C20.2341 25.6207 20.4849 25.6431 20.762 25.6436C21.2326 25.6444 21.4818 25.6874 21.9357 25.8462C22.2695 25.9629 22.8842 26.0984 23.0845 26.0993C23.1712 26.0997 23.3057 26.144 23.4277 26.2122C23.6082 26.3131 23.7515 26.3526 24.1873 26.4211C24.2624 26.4329 24.4315 26.5005 24.5631 26.5713C24.8187 26.709 25.3789 26.876 25.7165 26.9152C26.0365 26.9524 26.2831 27.0137 26.4449 27.0963C26.5264 27.1379 26.7286 27.2023 26.8941 27.2393C27.498 27.3745 27.4808 27.3656 27.9063 27.7654C27.9887 27.8428 28.1403 27.9644 28.2432 28.0357C28.3462 28.107 28.4526 28.1875 28.4798 28.2146C28.507 28.2417 28.5423 28.2639 28.5583 28.2639C28.5742 28.2639 28.72 28.3964 28.8823 28.5583C29.0447 28.7202 29.2047 28.8698 29.238 28.8907C29.8833 29.2956 30.0343 29.446 30.3052 29.9543C30.3275 29.9961 30.4426 30.0816 30.5611 30.1442C30.6795 30.2069 30.8634 30.3508 30.9697 30.4641C31.4178 30.9413 31.5114 31.026 31.6153 31.0476C31.7536 31.0764 32.0592 31.3686 32.1295 31.5392C32.2174 31.7527 32.4093 31.9486 32.5305 31.9486C32.6575 31.9486 32.7221 31.8874 32.9116 31.5877C33.0576 31.357 33.3919 31.0369 33.487 31.0369C33.5566 31.0369 33.9144 30.8116 33.9144 30.7678C33.9144 30.7487 33.9322 30.733 33.9541 30.733C33.9759 30.733 34.1285 30.5963 34.2932 30.4291C34.4579 30.262 34.6112 30.1252 34.6339 30.1252C34.7057 30.1252 35.1429 29.8055 35.1794 29.7263C35.2389 29.5972 35.6025 29.1756 35.6544 29.1756C35.8069 29.1756 36.2352 28.8002 36.2352 28.6666C36.2352 28.589 36.4169 28.4235 36.5517 28.3784C36.6247 28.3539 36.6844 28.3182 36.6844 28.2989C36.6844 28.2796 36.7139 28.2636 36.7499 28.2633C36.786 28.2629 36.8744 28.2095 36.9464 28.1446C37.0185 28.0797 37.113 28.0027 37.1564 27.9734C37.2212 27.9298 37.4705 27.5116 37.4705 27.4466C37.4705 27.4136 37.3754 27.4271 37.2673 27.4757C36.908 27.6369 36.7759 27.7221 36.7231 27.827C36.6915 27.8897 36.6573 27.9495 36.647 27.96C36.6367 27.9704 36.5874 28.0388 36.5375 28.1119C36.4875 28.1851 36.4243 28.2586 36.3971 28.2753C36.3698 28.292 36.3475 28.3286 36.3475 28.3566C36.3475 28.3885 36.2528 28.4294 36.0949 28.4657C35.7072 28.555 35.6576 28.583 35.3463 28.8894C35.1867 29.0465 35.0393 29.1752 35.0187 29.1753C34.925 29.176 34.3655 29.5853 34.1079 29.8417C33.9512 29.9977 33.805 30.1252 33.7829 30.1252C33.7426 30.1252 33.6495 30.206 33.2075 30.6242C33.076 30.7486 32.9175 30.8771 32.8552 30.9098C32.6869 30.9981 32.3729 30.9627 32.0795 30.8222C31.8634 30.7188 31.7008 30.5675 30.5917 29.4375C29.9068 28.7397 29.3183 28.1262 29.2837 28.0739C29.2491 28.0217 29.209 27.9704 29.1945 27.96C29.1412 27.9216 29.0902 27.6335 29.1156 27.5143C29.1459 27.3716 29.4154 27.0103 29.4915 27.0103C29.5542 27.0103 29.7695 26.7822 29.9044 26.5729C30.0402 26.362 30.2216 26.1202 30.2553 26.105C30.2708 26.098 30.2834 26.0625 30.2834 26.0261C30.2834 25.9897 30.4106 25.8459 30.5661 25.7066C30.8979 25.4095 31.0635 25.1995 31.2044 24.8972C31.2666 24.7637 31.4047 24.5771 31.5561 24.422C31.8069 24.165 31.9707 23.9702 32.0868 23.791C32.1213 23.7378 32.2744 23.5634 32.4271 23.4035C32.6176 23.204 32.7265 23.0537 32.774 22.9248C32.8523 22.7124 32.9986 22.4536 33.0758 22.3911C33.2833 22.2229 33.6149 21.8993 33.6149 21.8649C33.6149 21.8419 33.6444 21.796 33.6804 21.7628C33.7165 21.7297 33.8546 21.5849 33.9873 21.441C34.1201 21.2971 34.4333 20.9649 34.6833 20.7028C35.07 20.2975 35.4492 19.788 35.4492 19.6736C35.4492 19.6576 35.5784 19.5064 35.7363 19.3375C35.8942 19.1687 36.0747 18.9585 36.1374 18.8704C36.2002 18.7823 36.2731 18.6966 36.2995 18.6798C36.326 18.6631 36.3476 18.6317 36.3476 18.61C36.3476 18.5883 36.4722 18.4432 36.6246 18.2875C36.7965 18.112 36.9391 17.9244 37.0002 17.7932C37.1203 17.5359 37.3161 17.2907 37.5597 17.0925C37.7863 16.908 37.9767 16.8918 38.1898 17.0388C38.2656 17.091 38.3379 17.1338 38.3505 17.1338C38.4533 17.1338 39.1176 17.8832 39.1176 17.9991C39.1176 18.0212 39.1983 18.1304 39.297 18.2418C39.534 18.5095 39.7166 18.7504 39.7166 18.7956C39.7166 18.8156 39.9792 19.1033 40.3001 19.4347C40.621 19.7662 40.9078 20.085 40.9374 20.1431C40.967 20.2011 41.0034 20.2491 41.0184 20.2496C41.0333 20.2501 41.095 20.3184 41.1556 20.4015C41.2162 20.4846 41.2855 20.5526 41.3097 20.5526C41.3826 20.5526 41.7039 20.9394 41.7831 21.1224C41.8938 21.3784 41.8644 21.9341 41.7246 22.224C41.5726 22.5394 41.5427 22.584 41.3232 22.8227C41.2116 22.944 41.0483 23.1408 40.9603 23.2601C40.8722 23.3793 40.4362 23.8488 39.9912 24.3035C39.2422 25.0687 39.12 25.2167 38.7668 25.7863C38.7048 25.8864 38.5695 26.0133 38.4146 26.1168C38.2763 26.2093 38.1271 26.3168 38.0832 26.3558C37.9968 26.4325 37.6464 27.1466 37.6659 27.2062C37.6725 27.2262 37.7533 27.1906 37.8456 27.1271C37.9379 27.0637 38.0332 27.0115 38.0575 27.0111C38.0818 27.0107 38.1239 26.9882 38.1511 26.9611C38.272 26.8407 38.7272 26.5126 38.7985 26.4944C39.0244 26.4369 39.1972 26.6549 39.2043 27.0063C39.2083 27.2055 39.1398 27.5513 39.0793 27.6372C39.0097 27.7361 38.9664 27.9838 38.9366 28.4547L38.9041 28.9683L38.6927 29.4095C38.5764 29.6521 38.4813 29.8949 38.4813 29.9489C38.4813 30.0574 38.3494 30.3648 38.2018 30.6002C38.0248 30.8825 37.986 31.0039 38.0019 31.2258C38.0102 31.3414 38.0469 31.4958 38.0835 31.5689C38.1902 31.7823 38.2941 32.0751 38.2941 32.1626C38.2941 32.207 38.2678 32.3074 38.2355 32.3857C38.2033 32.464 38.1525 32.7182 38.1226 32.9507C38.0927 33.1831 38.0531 33.4245 38.0345 33.4872C38.0159 33.5499 37.9895 33.6867 37.9757 33.7911C37.9417 34.049 37.8646 34.3348 37.788 34.487C37.7505 34.5616 37.7116 34.7709 37.6927 34.9998C37.6752 35.2125 37.6433 35.4463 37.6219 35.5193C37.6004 35.5922 37.5827 35.6948 37.5825 35.7472C37.5823 35.7996 37.5151 35.9877 37.4332 36.1653C37.3208 36.409 37.2842 36.5359 37.2839 36.6828C37.2834 36.9036 37.219 37.1149 37.087 37.329C36.9698 37.5192 36.9173 37.6783 36.8703 37.9858C36.8336 38.2263 36.7159 38.6969 36.6402 38.9059C36.6202 38.9612 36.4788 39.1346 36.326 39.2911C36.1732 39.4477 36.0482 39.5939 36.0482 39.6161C36.0482 39.6382 36.0262 39.67 35.9993 39.6867C35.9724 39.7034 35.9018 39.7854 35.8424 39.869C35.783 39.9526 35.5035 40.2603 35.2213 40.5528C34.6993 41.0938 34.6265 41.2079 34.6259 41.486C34.6253 41.7561 34.5128 41.9788 34.2309 42.2676C34.0781 42.4242 33.9238 42.6025 33.8882 42.6637C33.8526 42.7249 33.8108 42.775 33.7954 42.775C33.78 42.775 33.7266 42.8359 33.6767 42.9104C33.6269 42.9849 33.5354 43.0746 33.4736 43.1098C33.3256 43.1941 33.0603 43.5118 33.0297 43.6413C33.0164 43.6976 32.9405 43.8796 32.8611 44.0457L32.7166 44.3478L32.7163 45.9071C32.716 47.333 32.7096 47.4934 32.6414 47.7822C32.5717 48.0772 32.5668 48.2313 32.5668 50.1271C32.5668 51.8586 32.5578 52.2017 32.5053 52.4661C32.4482 52.7538 32.4482 52.7994 32.5055 53.1032C32.5584 53.383 32.567 53.7272 32.5654 55.4816C32.5644 56.6098 32.549 57.6013 32.5313 57.6849C32.5136 57.7685 32.4534 57.9565 32.3976 58.1027C32.3009 58.356 32.2953 58.4084 32.2784 59.2044C32.2632 59.9201 32.2505 60.062 32.1899 60.1929C32.0561 60.482 32.9667 60.4573 22.1979 60.4632C16.8756 60.4661 12.4877 60.4613 12.4466 60.4525L12.4465 60.4525ZM27.9592 27.0148C27.8352 26.9886 27.6392 26.8728 27.5199 26.7553C27.4927 26.7285 27.4493 26.7065 27.4235 26.7065C27.3977 26.7065 27.2768 26.6279 27.1548 26.5317C26.8397 26.2833 26.7658 26.2523 26.399 26.214C26.0384 26.1765 25.8844 26.1274 25.6603 25.9787C25.0239 25.5565 24.9155 25.4992 24.7429 25.4939C24.6224 25.4901 24.3322 25.3341 24.0665 25.13C23.9516 25.0418 23.7747 24.9272 23.6734 24.8752C23.5721 24.8233 23.4059 24.7269 23.3041 24.661C23.2022 24.5952 23.0963 24.5413 23.0686 24.5413C22.9823 24.5413 22.7455 24.4026 22.5986 24.2661C22.4285 24.1079 22.3713 23.936 22.4234 23.7396C22.4643 23.5855 22.7332 23.1925 22.8774 23.076C22.9272 23.0357 22.991 22.943 23.0192 22.8698C23.1572 22.5114 23.3302 22.1916 23.45 22.0738C23.523 22.002 23.5828 21.9241 23.5828 21.9006C23.5828 21.8772 23.7175 21.6723 23.8822 21.4453C24.0469 21.2184 24.1817 21.0114 24.1817 20.9853C24.1817 20.9593 24.2038 20.9153 24.2308 20.8877C24.4629 20.6506 24.7955 20.2464 24.8347 20.1538C24.8613 20.0911 24.9315 19.9853 24.9909 19.9186C25.2064 19.6765 25.2782 19.5556 25.3576 19.3015C25.4044 19.1518 25.4893 18.984 25.5588 18.9035C25.625 18.827 25.7194 18.6839 25.7686 18.5854C25.8178 18.4869 25.8936 18.3738 25.937 18.334C25.9804 18.2942 26.0159 18.2407 26.0159 18.2151C26.0159 18.1894 26.0743 18.1233 26.1456 18.0681C26.2169 18.0129 26.2995 17.9126 26.329 17.8452C26.3586 17.7778 26.4387 17.5944 26.5071 17.4377C26.5755 17.281 26.6403 17.1443 26.6512 17.1338C26.7408 17.0478 26.9517 16.7498 26.9517 16.7092C26.9517 16.6811 27.0096 16.5902 27.0803 16.5072C27.2013 16.3652 27.3652 16.0023 27.4235 15.7473C27.4378 15.6846 27.4723 15.5996 27.5001 15.5584C27.5279 15.5172 27.5507 15.4605 27.5507 15.4324C27.5507 15.4043 27.6054 15.3264 27.6723 15.2593C27.8882 15.0427 28.0711 14.8102 28.1819 14.6117C28.2415 14.505 28.3259 14.3852 28.3696 14.3454C28.4133 14.3056 28.4491 14.2554 28.4491 14.2339C28.4491 14.2123 28.5628 14.0262 28.7017 13.8202C28.8407 13.6143 28.9831 13.3924 29.0183 13.3271C29.0534 13.2619 29.1488 13.1387 29.2303 13.0534C29.3743 12.9027 29.5651 12.6167 29.6504 12.4235C29.6735 12.3712 29.7065 12.3028 29.7238 12.2715C29.805 12.1242 29.9838 11.7271 29.9838 11.694C29.9838 11.6735 30.0434 11.5862 30.1162 11.4998C30.189 11.4135 30.2572 11.2997 30.2677 11.2469C30.3226 10.9697 30.3733 10.8532 30.4905 10.7342C30.6672 10.5549 30.8647 10.504 31.0761 10.5833C31.165 10.6167 31.2968 10.6577 31.3688 10.6744C31.6086 10.73 31.7855 10.831 32.0744 11.0776C32.2037 11.188 32.897 11.5514 33.0838 11.6068C33.1315 11.6209 33.3559 11.8167 33.5824 12.042C33.809 12.2672 34.0395 12.4748 34.0947 12.5033C34.2324 12.5743 34.5354 12.8847 34.5676 12.9877C34.592 13.0657 34.7733 13.2077 34.9998 13.3263C35.2207 13.442 35.2874 13.4958 35.5479 13.7689C35.6991 13.9273 35.8339 14.0569 35.8476 14.0569C35.8613 14.0569 35.9246 14.0972 35.9883 14.1464C36.052 14.1956 36.1715 14.2708 36.2538 14.3134C36.4333 14.4063 36.6843 14.6719 36.6843 14.7688C36.6843 14.807 36.7433 14.9311 36.8153 15.0446C36.9724 15.292 36.9906 15.4237 36.902 15.6714C36.8506 15.8149 36.5885 16.3559 36.497 16.5071C36.4591 16.5698 36.3918 16.7194 36.3476 16.8395C36.3034 16.9597 36.2471 17.0793 36.2226 17.1054C36.1425 17.1906 36.048 17.3579 36.048 17.4143C36.048 17.4446 36.0342 17.4751 36.0174 17.4821C35.9188 17.523 35.6335 17.9576 35.5446 18.2021C35.4886 18.3563 35.4261 18.5274 35.4058 18.5824C35.3854 18.6374 35.3194 18.7303 35.2592 18.7889C35.1989 18.8475 35.1496 18.9075 35.1496 18.9223C35.1496 18.937 35.0597 19.0407 34.9498 19.1526C34.8399 19.2645 34.654 19.4874 34.5368 19.6478C34.4195 19.8082 34.311 19.945 34.2957 19.9517C34.2361 19.9778 33.9143 20.4109 33.9143 20.4648C33.9143 20.5235 33.8045 20.7026 33.6858 20.8376C33.4028 21.1596 33.3154 21.2688 33.3154 21.3002C33.3154 21.3202 33.1202 21.5391 32.8816 21.7866C32.6431 22.0341 32.4322 22.2723 32.413 22.3159C32.3938 22.3594 32.3282 22.472 32.2673 22.566C32.2063 22.66 32.1409 22.7711 32.122 22.8129C32.103 22.8547 31.9627 23.0173 31.8103 23.1742C31.5912 23.3998 31.4945 23.5387 31.3481 23.8381C31.2463 24.0464 31.1209 24.2539 31.0694 24.2992C30.9094 24.4401 30.8123 24.5199 30.7164 24.5892C30.6656 24.6259 30.6021 24.6964 30.5753 24.7458C30.3905 25.0868 29.5507 26.0988 29.4525 26.0988C29.3856 26.0988 29.0983 26.3743 28.8234 26.7019C28.7308 26.8123 28.6113 26.926 28.5579 26.9545C28.4334 27.021 28.1317 27.0514 27.9592 27.0149L27.9592 27.0148ZM19.1878 24.1422C19.1073 24.0938 19.0265 24.027 19.0082 23.9938C18.9899 23.9606 18.9547 23.9332 18.93 23.9328C18.9053 23.9324 18.8177 23.8724 18.7353 23.7994C18.653 23.7264 18.5519 23.6561 18.5107 23.6431C18.4324 23.6184 18.1455 23.4043 18.1239 23.3545C18.117 23.3387 18.0872 23.3257 18.0575 23.3257C18.0278 23.3257 17.9175 23.2656 17.8123 23.1922C17.7071 23.1188 17.577 23.0489 17.5231 23.0369C17.1983 22.9646 16.6575 22.7296 16.5642 22.6204C16.5436 22.5963 16.448 22.523 16.3518 22.4575C16.1409 22.314 16.0214 22.1677 16.0214 22.0532C16.0214 21.9594 16.1532 21.7683 16.2178 21.7683C16.2404 21.7683 16.395 21.7017 16.5613 21.6203C16.7276 21.5389 16.9856 21.4345 17.1345 21.3883C17.2835 21.342 17.5853 21.2106 17.8052 21.0962C18.1397 20.9221 18.2513 20.8832 18.4889 20.8576C18.6837 20.8367 18.8521 20.7888 19.0258 20.7051C19.2659 20.5894 19.3096 20.5817 19.8867 20.5535C20.4973 20.5237 20.5985 20.5038 20.9439 20.3456C21.1611 20.2461 21.4072 20.1872 21.7467 20.1534C21.8794 20.1402 22.0887 20.0879 22.2117 20.0371C22.5589 19.894 22.7595 19.9135 22.8544 20.0996C22.9311 20.2502 22.9234 20.3362 22.811 20.5836C22.757 20.7024 22.6985 20.849 22.6811 20.9094C22.6636 20.9698 22.5856 21.1163 22.5078 21.2351C22.3979 21.4029 22.3205 21.4736 22.1605 21.5526C21.9316 21.6656 21.6487 21.7669 21.5594 21.7677C21.5049 21.7683 21.1498 22.2167 21.1498 22.285C21.1498 22.3131 20.8854 22.8827 20.8078 23.0219C20.6777 23.2552 20.5508 23.5216 20.5505 23.5621C20.5499 23.6416 19.9857 24.1359 19.8244 24.1981C19.6491 24.2657 19.3494 24.2394 19.1879 24.1422L19.1878 24.1422ZM24.0519 17.8793C23.9463 17.7721 23.9275 17.5901 23.9985 17.3617C24.0212 17.2887 24.0537 16.9726 24.0706 16.6592C24.1004 16.1098 24.1703 15.7851 24.2901 15.6385C24.3593 15.5539 24.5188 14.8493 24.5179 14.6322C24.5164 14.2791 24.467 14.1404 24.2703 13.9377C24.1717 13.8362 24.0743 13.7532 24.0538 13.7532C23.9293 13.7532 23.1621 13.4179 22.9993 13.2924C22.8944 13.2115 22.7888 13.1454 22.7645 13.1454C22.7207 13.1454 22.4213 12.9609 22.3847 12.9113C22.3742 12.8971 22.3153 12.8739 22.2537 12.8597C21.9133 12.7814 21.4878 12.5859 21.0937 12.3269C20.6803 12.0553 20.6604 12.0465 20.3344 11.9879C19.9325 11.9157 19.8573 11.8792 19.7406 11.7003C19.5574 11.4194 19.6149 10.9899 19.8822 10.6426C19.9206 10.5928 19.9519 10.5233 19.9519 10.4883C19.9519 10.4001 20.119 10.0567 20.1917 9.99543C20.2245 9.96778 20.2514 9.92475 20.2514 9.89982C20.2514 9.87488 20.3061 9.80199 20.3731 9.73783C20.5823 9.53721 20.7074 9.37182 20.7838 9.19473C20.9579 8.79165 21.2082 8.33729 21.3526 8.16232C21.5711 7.89772 21.6548 7.78543 21.7098 7.683C21.7402 7.62651 21.8288 7.47653 21.9066 7.34972C21.9845 7.22291 22.0482 7.09364 22.0482 7.06245C22.0482 6.99469 22.1867 6.69206 22.2546 6.61162C22.281 6.58029 22.3562 6.45208 22.4217 6.32672C22.4872 6.20136 22.5621 6.08171 22.5882 6.06081C22.6143 6.03992 22.6658 5.963 22.7028 5.88987C22.7397 5.81675 22.7826 5.74837 22.7981 5.73792C22.8339 5.71379 23.0589 5.26555 23.0589 5.21834C23.0589 5.1989 23.1158 5.12702 23.1854 5.05859C23.277 4.96845 23.357 4.92894 23.4755 4.91514C23.7142 4.88737 23.8371 4.83022 23.9238 4.70667C24.0313 4.55351 24.1974 4.47367 24.3437 4.50483C24.4091 4.51876 24.5721 4.58735 24.706 4.65725C24.8398 4.72716 25.0274 4.79453 25.1229 4.80696C25.2968 4.82963 25.6698 5.0302 25.9473 5.25039C26.0227 5.31019 26.1491 5.38633 26.2281 5.4196C26.3071 5.45287 26.4644 5.53646 26.5776 5.60536C26.6909 5.67427 26.8497 5.74217 26.9305 5.75625C27.1838 5.80037 28.0922 6.27675 28.1433 6.39219C28.15 6.40732 28.2763 6.50855 28.424 6.61715C28.5717 6.72575 28.8592 6.98261 29.0628 7.18794C29.2664 7.39328 29.4417 7.56128 29.4523 7.56128C29.463 7.56128 29.5238 7.60159 29.5875 7.65085C29.6512 7.70012 29.7875 7.78441 29.8905 7.83815C29.9934 7.8919 30.1595 8.00544 30.2595 8.09046C30.3596 8.17548 30.456 8.24504 30.4739 8.24504C30.5233 8.24504 30.658 8.55024 30.6572 8.66054C30.6552 8.94226 30.4859 9.66367 30.366 9.90173C30.2969 10.0389 30.2519 10.2389 30.1846 10.709C30.1745 10.7792 30.1253 10.8783 30.0752 10.9291C30.0251 10.98 29.9841 11.0292 29.9841 11.0385C29.9841 11.0478 29.928 11.13 29.8595 11.2211C29.7909 11.3122 29.7135 11.4643 29.6873 11.559C29.6393 11.733 29.4693 11.9742 29.1982 12.2527C29.0631 12.3915 28.7488 12.949 28.7488 13.0498C28.7488 13.0731 28.6014 13.2551 28.4212 13.4542C28.1471 13.7572 28.0732 13.8673 27.9684 14.1288C27.876 14.3591 27.7796 14.5148 27.6022 14.7205C27.4698 14.874 27.3367 15.0092 27.3064 15.021C27.2762 15.0327 27.2514 15.0627 27.2514 15.0876C27.2514 15.1125 27.1841 15.2234 27.1017 15.3341C27.0194 15.4448 26.952 15.5517 26.952 15.5718C26.952 15.5918 26.9391 15.6139 26.9234 15.6209C26.8814 15.6395 26.6398 15.9966 26.5872 16.1179C26.5622 16.1753 26.5288 16.2226 26.5129 16.2229C26.4971 16.2233 26.4251 16.2768 26.353 16.342C26.281 16.4071 26.1633 16.4857 26.0915 16.5166C26.0197 16.5475 25.7586 16.7739 25.5113 17.0198C24.9341 17.5936 24.8042 17.7046 24.5696 17.8251C24.2642 17.9819 24.1634 17.9924 24.0519 17.8793L24.0519 17.8793ZM17.762 11.1051C17.6714 11.0829 17.4794 11.0024 17.2702 10.8989C17.1849 10.8567 17.0488 10.8132 16.9675 10.8021C16.8606 10.7875 16.7558 10.727 16.5878 10.5827C16.338 10.3681 16.1067 10.2786 15.5009 10.162C15.1463 10.0937 14.9894 10.0313 14.7339 9.85666C14.6293 9.78518 14.5285 9.7267 14.51 9.7267C14.4914 9.7267 14.4574 9.7022 14.4346 9.67226C14.3631 9.57856 14.0319 9.4228 13.9042 9.4228C13.7378 9.4228 13.3578 9.29886 13.2209 9.19995C13.1592 9.15538 13.0915 9.11891 13.0704 9.11891C13.0493 9.11891 13.0082 9.09472 12.9791 9.06515C12.95 9.03559 12.8098 8.9393 12.6676 8.85117C12.5254 8.76305 12.3615 8.65049 12.3033 8.60103C12.2451 8.55158 12.1608 8.51083 12.1161 8.51049C11.9824 8.50946 11.748 8.34938 11.6719 8.20722C11.6179 8.1062 11.6044 8.01953 11.6157 7.84634C11.6351 7.55006 11.7094 7.36402 11.8788 7.18803C11.9543 7.10959 12.016 7.03218 12.016 7.016C12.016 6.97257 12.2042 6.71968 12.3093 6.62192C12.3594 6.57527 12.481 6.48463 12.5795 6.42049C12.7842 6.2872 12.8254 6.23098 13.072 5.74744C13.1862 5.52355 13.2513 5.34759 13.2513 5.26269C13.2513 5.13006 13.3847 4.78838 13.4364 4.78838C13.4514 4.78838 13.5626 4.58752 13.6836 4.34203C13.8045 4.09654 13.9398 3.86636 13.9841 3.83054C14.0284 3.7947 14.1254 3.64085 14.1997 3.48865C14.3565 3.16725 14.4246 3.06738 14.7299 2.71121C14.8534 2.5671 14.9882 2.39945 15.0294 2.33865C15.0706 2.27786 15.1674 2.16043 15.2446 2.0777C15.3218 1.99496 15.385 1.91264 15.385 1.89476C15.385 1.87687 15.4397 1.76751 15.5067 1.65172C15.5736 1.53593 15.6536 1.39214 15.6845 1.3322C15.7533 1.19859 16.0999 0.799771 16.1471 0.799771C16.166 0.799771 16.2522 0.735668 16.3388 0.65732C16.8603 0.185217 16.925 0.153992 17.3826 0.153992C17.7771 0.153992 17.9175 0.20301 18.0702 0.394123C18.1609 0.507658 18.383 0.622653 18.7165 0.728815C18.8709 0.777963 19.0189 0.839072 19.0454 0.864619C19.0719 0.890165 19.1435 0.940991 19.2045 0.977569C19.2655 1.01415 19.3154 1.05748 19.3154 1.07387C19.3154 1.09025 19.345 1.10366 19.3811 1.10366C19.4171 1.10366 19.5308 1.16441 19.6337 1.23866C19.7366 1.3129 19.8945 1.41103 19.9846 1.45672C20.0747 1.5024 20.1842 1.57811 20.2279 1.62496C20.2716 1.67181 20.3335 1.71044 20.3654 1.7108C20.3973 1.71116 20.4394 1.72718 20.459 1.74641C20.5126 1.79913 20.9355 2.01535 20.9849 2.01535C21.0416 2.01535 21.4491 2.46656 21.4491 2.52924C21.4491 2.55586 21.5039 2.6108 21.5708 2.65133C21.6377 2.69186 21.7497 2.77475 21.8197 2.83552C22.1421 3.11541 22.3647 3.32411 22.4677 3.4432C22.5294 3.51448 22.6006 3.5728 22.6259 3.5728C22.6512 3.5728 22.7421 3.63855 22.8279 3.71891C22.974 3.85576 22.9839 3.87805 22.9837 4.07029C22.9835 4.2695 22.9656 4.31468 22.7871 4.56834C22.751 4.61969 22.6639 4.82495 22.5937 5.02445C22.5234 5.22396 22.4502 5.41914 22.431 5.45815C22.155 6.01903 22.1429 6.03859 21.9076 6.3059C21.8201 6.40532 21.7486 6.50416 21.7486 6.52555C21.7486 6.54694 21.7238 6.58528 21.6936 6.61073C21.6237 6.66963 21.4666 6.95345 21.4364 7.07554C21.4163 7.15698 21.3572 7.27202 21.1771 7.58039C21.1527 7.62217 21.0691 7.76012 20.9914 7.88693C20.9137 8.01374 20.8502 8.13028 20.8502 8.1459C20.8502 8.16153 20.7744 8.26874 20.6817 8.38416C20.5891 8.49958 20.5129 8.60526 20.5125 8.61902C20.5121 8.63277 20.4532 8.71221 20.3815 8.79556C20.3099 8.8789 20.2512 8.96744 20.2512 8.9923C20.2512 9.01717 20.1838 9.14046 20.1015 9.26628C20.0191 9.3921 19.9518 9.51182 19.9518 9.53233C19.9518 9.55284 19.876 9.63265 19.7833 9.7097C19.6907 9.78674 19.6149 9.87238 19.6149 9.90002C19.6149 9.92765 19.5836 9.97261 19.5454 9.9999C19.4704 10.0535 19.34 10.2949 19.3033 10.4484C19.2908 10.5006 19.2108 10.6372 19.1257 10.7518C18.9048 11.0491 18.707 11.1301 18.2111 11.1263C18.0052 11.1247 17.8031 11.1151 17.7619 11.105L17.762 11.1051Z" fill="white"/>
</svg>
